<svg width="66" height="97" viewBox="0 0 66 97" fill="none" xmlns="http://www.w3.org/2000/svg">
<path d="M22.3893 72.4166L28.3009 51.5296C28.3009 51.5296 16.2203 23.1782 12.9384 15.2121C9.6565 7.24596 16.3519 1.5 16.3519 1.5L33.1183 41.4624H33.1343L49.9016 1.5C49.9016 1.5 56.5987 7.24596 53.3168 15.2121C50.0349 23.1782 37.9526 51.5296 37.9526 51.5296L43.8238 72.2714" stroke="#E9C664" stroke-width="3" stroke-linecap="round" stroke-linejoin="round"/>
<path d="M27.6714 82.7337C27.6716 85.6016 26.7007 88.386 24.9153 90.6381C23.1299 92.8902 20.6341 94.4788 17.83 95.1478C15.0259 95.8168 12.077 95.5273 9.45858 94.3258C6.84017 93.1244 4.70483 91.0811 3.39671 88.5253C2.08859 85.9695 1.68392 83.05 2.24793 80.2375C2.81194 77.425 4.31175 74.8833 6.50566 73.0221C8.69956 71.161 11.4597 70.0887 14.3412 69.9782C17.2227 69.8677 20.0577 70.7255 22.3892 72.4131" stroke="#E9C664" stroke-width="3" stroke-linecap="round" stroke-linejoin="round"/>
<path d="M43.8228 72.2714C46.1771 70.636 49.015 69.8335 51.8822 69.9921C54.7495 70.1508 57.4803 71.2614 59.6377 73.1464C61.7951 75.0314 63.2543 77.5816 63.7818 80.389C64.3093 83.1964 63.8746 86.0987 62.5473 88.6313C61.2199 91.1639 59.0766 93.1804 56.4605 94.3581C53.8443 95.5358 50.9066 95.8067 48.1173 95.1273C45.3281 94.4479 42.8486 92.8575 41.0758 90.6107C39.3029 88.3639 38.3392 85.5906 38.3389 82.7346" stroke="#E9C664" stroke-width="3" stroke-linecap="round" stroke-linejoin="round"/>
<path d="M27.6714 82.7335C27.7558 79.1926 28.451 58.0867 33.0077 58.0867C37.5795 58.0867 38.2553 79.201 38.3338 82.5649" stroke="#E9C664" stroke-width="3" stroke-linecap="round" stroke-linejoin="round"/>
</svg>
